#!OML:ASF X:\für Bonn\!DataBase\2005_08_12_Daniel\c3d\Daniel.ASF
:FULLY-SPECIFIED
:DEGREES
49
root 3.61473 17.0152 -2.5989 -180.372 -74.5031 133.414
lowerback 53.7975 2.22487 3.19194
upperback 13.8435 -0.511353 -8.96291
thorax -5.8659 -1.16891 -10.988
lowerneck 6.23259 7.55318 -9.01076
upperneck 30.7173 8.13853 1.93022
head 8.14769 2.28282 2.43207
rclavicle -7.15625e-015 6.83819e-014
rhumerus -28.2088 8.29268 -92.8006
rradius 54.9169
rwrist 4.96469
rhand -18.189 21.0156
rfingers 7.12502
rthumb 8.08791 -8.80959
lclavicle -7.15625e-015 6.83819e-014
lhumerus -34.6605 -8.47995 81.7579
lradius 133.865
lwrist 14.083
lhand -16.773 -23.8515
lfingers 7.12502
lthumb 9.45437 5.91643
rfemur 38.787 3.18196 10.968
rtibia 22.7669
rfoot -18.5299 -7.36615
rtoes -8.65312
lfemur -75.5297 9.64012 -4.53498
ltibia 64.0963
lfoot 9.47734 8.36604
ltoes -11.144
50
root 3.67161 17.0327 -2.65157 -180.256 -75.0659 133.413
lowerback 54.2837 2.28041 3.03146
upperback 13.808 -0.530153 -8.78187
thorax -5.94015 -1.19478 -10.7013
lowerneck 6.14161 7.60589 -8.86778
upperneck 31.0602 8.13035 2.26891
head 8.26829 2.3042 2.53418
rclavicle 3.4191e-014 -4.77083e-014
rhumerus -28.4668 6.17514 -92.9446
rradius 53.98
rwrist 4.40665
rhand -19.2934 20.7779
rfingers 7.12502
rthumb 7.02197 -9.08558
lclavicle 3.4191e-014 -4.77083e-014
lhumerus -35.457 -7.66424 82.5923
lradius 133.839
lwrist 13.9107
lhand -17.3265 -24.4189
lfingers 7.12502
lthumb 8.92026 5.37255
rfemur 39.2468 2.58654 11.2497
rtibia 21.6182
rfoot -17.9186 -7.73736
rtoes -8.67798
lfemur -73.0252 8.46153 -3.67561
ltibia 56.666
lfoot 2.95157 10.1829
ltoes -16.37
51
root 3.73772 17.0535 -2.70293 -180.508 -75.6328 133.852
lowerback 54.6408 2.28074 2.99016
upperback 13.777 -0.534508 -8.58461
thorax -5.99216 -1.20711 -10.4588
lowerneck 6.17422 7.66858 -8.76553
upperneck 31.3104 8.12106 2.59004
head 8.33556 2.32423 2.63035
rclavicle -1.23246e-014 6.99722e-014
rhumerus -28.8974 4.20307 -93.0505
rradius 53.0473
rwrist 3.80436
rhand -20.5415 20.6428
rfingers 7.12502
rthumb 5.81704 -9.25739
lclavicle -1.23246e-014 6.99722e-014
lhumerus -36.322 -6.82355 83.463
lradius 133.831
lwrist 13.8253
lhand -17.815 -24.985
lfingers 7.12502
lthumb 8.44891 4.82597
rfemur 39.4842 1.97102 11.6592
rtibia 20.6822
rfoot -17.3468 -8.05817
rtoes -8.61922
lfemur -70.7612 7.27191 -2.62007
ltibia 49.8549
lfoot -2.88553 11.9333
ltoes -21.8612
52
root 3.79988 17.0668 -2.74913 -181.167 -76.1407 134.721
lowerback 54.9195 2.26077 3.03958
upperback 13.756 -0.507307 -8.37968
thorax -6.0189 -1.2009 -10.2637
lowerneck 6.29065 7.7318 -8.68946
upperneck 31.4672 8.1071 2.8933
head 8.35609 2.34316 2.7192
rclavicle 9.93923e-015 -3.81667e-014
rhumerus -29.4481 2.34568 -93.1346
rradius 52.0629
rwrist 3.05234
rhand -21.8283 20.7413
rfingers 7.12502
rthumb 4.57453 -9.1893
lclavicle 9.93923e-015 -3.81667e-014
lhumerus -37.2076 -6.02232 84.3733
lradius 133.876
lwrist 13.8088
lhand -18.5056 -25.1411
lfingers 7.12502
lthumb 7.78238 4.69563
rfemur 39.5741 1.41385 12.1566
rtibia 19.9776
rfoot -16.8888 -8.281
rtoes -8.41958
lfemur -68.8988 6.24256 -1.53216
ltibia 43.9874
lfoot -6.57299 13.6194
ltoes -22.7078
53
root 3.84467 17.0614 -2.7854 -182.016 -76.57 135.774
lowerback 55.1432 2.21773 3.14817
upperback 13.7592 -0.478375 -8.19637
thorax -6.01457 -1.19133 -10.1213
lowerneck 6.40437 7.80082 -8.6733
upperneck 31.5829 8.10537 3.19117
head 8.35988 2.36345 2.81559
rclavicle -8.34896e-015 -9.54166e-015
rhumerus -30.0291 0.656279 -93.1778
rradius 50.995
rwrist 2.05074
rhand -23.1588 21.0898
rfingers 7.12502
rthumb 3.28974 -8.86457
lclavicle -8.34896e-015 -9.54166e-015
lhumerus -38.0231 -5.11941 85.3724
lradius 133.948
lwrist 13.9236
lhand -19.2177 -24.7735
lfingers 7.12502
lthumb 7.09505 5.0876
rfemur 39.5967 0.930819 12.6202
rtibia 19.4667
rfoot -16.5405 -8.39777
rtoes -8.25019
lfemur -67.4518 5.74043 -1.03287
ltibia 39.4699
lfoot -9.20773 14.4214
ltoes -23.7425
54
root 3.8856 17.055 -2.81505 -183.06 -76.8838 136.986
lowerback 55.3662 2.18758 3.30504
upperback 13.7811 -0.41867 -8.04583
thorax -5.98526 -1.16568 -10.052
lowerneck 6.59917 7.84242 -8.62142
upperneck 31.5549 8.07878 3.42193
head 8.30562 2.37895 2.87566
rclavicle -3.85642e-014 -6.83819e-014
rhumerus -30.5957 -0.856488 -93.2312
rradius 49.8664
rwrist 0.676308
rhand -24.5545 21.3084
rfingers 7.12502
rthumb 1.94181 -8.66255
lclavicle -3.85642e-014 -6.83819e-014
lhumerus -38.6922 -4.20715 86.3716
lradius 133.974
lwrist 14.1794
lhand -19.8447 -24.1706
lfingers 7.12502
lthumb 6.48972 5.70998
rfemur 39.5004 0.557422 13.0766
rtibia 19.213
rfoot -16.2926 -8.45457
rtoes -8.13279
lfemur -66.5179 5.51896 -0.860937
ltibia 36.6275
lfoot -10.9616 14.6875
ltoes -26.1318
55
root 3.92481 17.0511 -2.84055 -184.23 -77.1061 138.273
lowerback 55.6101 2.16913 3.48131
upperback 13.808 -0.341442 -7.90829
thorax -5.94896 -1.13229 -10.014
lowerneck 6.76735 7.89349 -8.65153
upperneck 31.5217 8.05949 3.70396
head 8.24727 2.39368 2.96748
rclavicle 1.19271e-014 6.04305e-014
rhumerus -31.152 -2.12964 -93.2855
rradius 48.638
rwrist -1.09279
rhand -25.9831 21.5155
rfingers 7.12502
rthumb 0.562061 -8.46349
lclavicle 1.19271e-014 6.04305e-014
lhumerus -39.2599 -3.50846 87.2184
lradius 134.016
lwrist 14.5561
lhand -20.3348 -23.3837
lfingers 7.12502
lthumb 6.01659 6.5109
rfemur 39.3062 0.273063 13.5416
rtibia 19.2136
rfoot -16.1408 -8.54187
rtoes -8.18892
lfemur -66.2063 5.61976 -1.12259
ltibia 35.6803
lfoot -11.5053 14.4183
ltoes -28.7991
56
root 3.95811 17.043 -2.86261 -185.301 -77.2818 139.486
lowerback 55.7718 2.16139 3.65069
upperback 13.8518 -0.254277 -7.78884
thorax -5.8865 -1.09232 -9.99673
lowerneck 7.00643 7.93971 -8.67888
upperneck 31.3762 8.04188 3.94029
head 8.14029 2.41152 3.03719
rclavicle 1.19271e-014 1.00187e-013
rhumerus -31.6225 -3.32874 -93.2983
rradius 47.1595
rwrist -2.9092
rhand -27.1824 21.8036
rfingers 7.12502
rthumb -0.596283 -8.17535
lclavicle 1.19271e-014 1.00187e-013
lhumerus -39.7416 -3.02909 87.8178
lradius 134.039
lwrist 14.9599
lhand -20.6749 -22.6773
lfingers 7.12502
lthumb 5.68824 7.22631
rfemur 38.9997 0.0796909 14.016
rtibia 19.4015
rfoot -16.136 -8.67038
rtoes -8.28729
lfemur -66.5102 6.14031 -2.02293
ltibia 36.5235
lfoot -10.6595 13.7384
ltoes -27.4815
57
root 3.98308 17.0305 -2.87976 -186.265 -77.4133 140.626
lowerback 55.8654 2.1598 3.82793
upperback 13.8965 -0.152749 -7.68914
thorax -5.81672 -1.0424 -10.0112
lowerneck 7.24614 7.97125 -8.69204
upperneck 31.1983 8.01632 4.14248
head 8.02534 2.42602 3.09178
rclavicle 6.67916e-014 -9.54166e-014
rhumerus -32.0203 -4.42109 -93.2313
rradius 45.4025
rwrist -4.62492
rhand -28.1188 22.192
rfingers 7.12502
rthumb -1.50062 -7.78244
lclavicle 6.67916e-014 -9.54166e-014
lhumerus -40.2021 -2.67234 88.324
lradius 134.038
lwrist 15.2949
lhand -20.988 -22.0229
lfingers 7.12502
lthumb 5.38593 7.88862
rfemur 38.514 -0.0372927 14.4855
rtibia 19.8915
rfoot -16.2866 -8.82861
rtoes -8.40572
lfemur -67.3529 6.88108 -3.24881
ltibia 38.8345
lfoot -8.90707 12.9239
ltoes -23.6395
58
root 3.99903 17.0115 -2.89332 -187.104 -77.5223 141.684
lowerback 55.8836 2.15328 4.00244
upperback 13.9318 -0.0532335 -7.6085
thorax -5.7535 -0.990246 -10.0445
lowerneck 7.52762 8.01297 -8.70604
upperneck 31.0152 8.00221 4.32755
head 7.90284 2.44286 3.13892
rclavicle 1.15295e-014 6.83819e-014
rhumerus -32.3447 -5.51632 -93.0586
rradius 43.3511
rwrist -5.91682
rhand -28.6652 22.6312
rfingers 7.12502
rthumb -2.02841 -7.33889
lclavicle 1.15295e-014 6.83819e-014
lhumerus -40.6539 -2.40879 88.7641
lradius 134.021
lwrist 15.6503
lhand -21.1511 -21.4207
lfingers 7.12502
lthumb 5.22843 8.49477
rfemur 37.7661 -0.0805993 14.962
rtibia 20.8478
rfoot -16.7093 -8.99909
rtoes -8.42169
lfemur -68.5226 7.74579 -4.66047
ltibia 42.1701
lfoot -6.49387 12.0023
ltoes -19.968
59
root 4.00144 16.9812 -2.90262 -187.389 -77.6166 142.247
lowerback 55.8093 2.18272 4.09372
upperback 13.9613 0.0487739 -7.54364
thorax -5.69222 -0.936163 -10.0575
lowerneck 7.79389 8.05473 -8.74094
upperneck 30.8769 7.98213 4.53725
head 7.79724 2.45335 3.19942
rclavicle -4.41302e-014 2.06736e-014
rhumerus -32.6745 -6.45709 -92.7967
rradius 41.1568
rwrist -6.93588
rhand -28.8626 22.9522
rfingers 7.12502
rthumb -2.21901 -7.01599
lclavicle -4.41302e-014 2.06736e-014
lhumerus -41.0213 -2.24859 89.1138
lradius 133.889
lwrist 15.9638
lhand -21.1747 -21.1873
lfingers 7.12502
lthumb 5.20571 8.7288
rfemur 36.7448 -0.0782868 15.2975
rtibia 22.2726
rfoot -17.423 -9.10622
rtoes -8.50221
lfemur -69.8466 8.61204 -6.19906
ltibia 46.1824
lfoot -3.92846 11.0058
ltoes -18.5241
60
root 3.99061 16.9375 -2.90731 -187.027 -77.732 142.247
lowerback 55.621 2.21514 4.11187
upperback 13.9785 0.120386 -7.5222
thorax -5.64579 -0.892876 -10.0719
lowerneck 8.01519 8.11213 -8.78439
upperneck 30.8556 7.96768 4.80376
head 7.73608 2.46246 3.28558
rclavicle -5.1684e-015 1.1291e-013
rhumerus -33.04 -7.20105 -92.5295
rradius 38.8848
rwrist -7.74784
rhand -28.7974 23.0965
rfingers 7.12502
rthumb -2.15603 -6.87231
lclavicle -5.1684e-015 1.1291e-013
lhumerus -41.3268 -2.16879 89.383
lradius 133.698
lwrist 16.2252
lhand -20.9367 -21.4575
lfingers 7.12502
lthumb 5.43543 8.45281
rfemur 35.4779 -0.0532094 15.4894
rtibia 24.0752
rfoot -18.3498 -9.16993
rtoes -8.53344
lfemur -71.2411 9.32155 -7.72047
ltibia 50.6413
lfoot -0.99455 10.1252
ltoes -16.5405
